P2
# Julia 
100 100
255
245 245 245 245 245 245 245 245 245 245 245 245 245 245 245 245 245 245 245 245 245 245 245 245 245 245 245 245 245 245 245 245 245 245 245 245 245 245 245 245 245 245 245 245 245 245 245 245 245 245 245 245 245 245 245 245 245 245 245 245 245 245 245 245 245 245 245 245 245 245 245 245 245 245 245 245 245 245 245 245 245 245 245 245 245 245 245 245 245 245 245 245 245 245 245 245 245 245 245 245 
245 245 245 245 245 245 245 245 245 245 245 245 245 245 245 245 245 245 245 245 245 245 245 245 245 245 245 245 245 245 245 245 245 245 245 245 245 245 245 245 245 245 245 245 245 245 245 245 245 245 245 245 245 245 245 245 245 245 245 245 245 245 245 245 245 245 245 245 245 245 245 245 245 245 245 245 245 245 245 245 245 245 245 245 245 245 245 245 245 245 245 245 245 245 245 245 245 245 245 245 
245 245 245 245 245 245 245 245 245 245 245 245 245 245 245 245 245 245 245 245 245 245 245 245 245 245 245 245 245 245 245 245 245 245 245 245 245 245 245 245 245 245 245 245 245 245 245 245 245 245 245 245 245 245 245 245 245 245 245 245 245 245 245 245 245 245 245 245 245 245 245 245 245 245 245 245 245 245 245 245 245 245 245 245 245 245 245 245 245 245 245 245 245 245 245 245 245 245 245 245 
245 245 245 245 245 245 245 245 245 245 245 245 245 245 245 245 245 245 245 245 245 245 245 245 245 245 245 245 245 245 245 245 245 245 245 245 245 245 245 245 245 245 245 245 245 245 245 245 245 245 245 245 245 245 245 245 245 245 245 245 245 245 245 245 245 245 245 245 245 245 245 245 245 245 245 245 245 245 245 245 245 245 245 245 245 245 245 245 245 245 245 245 245 245 245 245 245 245 245 245 
245 245 245 245 245 245 245 245 245 245 245 245 245 245 245 245 245 245 245 245 245 245 245 245 245 245 245 245 245 245 245 245 245 245 245 245 245 245 245 245 245 245 245 245 245 245 245 245 245 245 245 245 245 245 245 245 245 245 245 245 245 245 245 245 245 245 245 245 245 245 245 245 245 245 245 245 245 245 245 245 245 245 245 245 245 245 245 245 245 245 245 245 245 245 245 245 245 245 245 245 
245 245 245 245 245 245 245 245 245 245 245 245 245 245 245 245 245 245 245 245 245 245 245 245 245 245 245 245 245 245 245 245 245 245 245 245 245 245 245 245 245 245 245 245 245 245 245 245 245 245 245 245 245 245 245 245 240 240 240 240 240 240 240 240 240 245 245 245 245 245 245 245 245 245 245 245 245 245 245 245 245 245 245 245 245 245 245 245 245 245 245 245 245 245 245 245 245 245 245 245 
245 245 245 245 245 245 245 245 245 245 245 245 245 245 245 245 245 245 245 245 245 245 245 245 245 245 245 245 245 245 245 245 245 245 245 245 245 245 245 245 245 245 245 245 245 245 245 245 245 245 245 240 240 240 240 240 240 240 240 240 240 240 240 240 240 240 240 240 240 240 245 245 245 245 245 245 245 245 245 245 245 245 245 245 245 245 245 245 245 245 245 245 245 245 245 245 245 245 245 245 
245 245 245 245 245 245 245 245 245 245 245 245 245 245 245 245 245 245 245 245 245 245 245 245 245 245 245 245 245 245 245 245 245 245 245 245 245 245 245 245 245 245 245 245 245 245 245 245 240 240 240 240 240 240 240 240 240 240 240 240 240 240 240 240 240 240 240 240 240 240 240 240 240 245 245 245 245 245 245 245 245 245 245 245 245 245 245 245 245 245 245 245 245 245 245 245 245 245 245 245 
245 245 245 245 245 245 245 245 245 245 245 245 245 245 245 245 245 245 245 245 245 245 245 245 245 245 245 245 245 245 245 245 245 245 245 245 245 245 245 245 245 245 245 245 245 240 240 240 240 240 240 240 240 240 240 240 240 240 240 240 240 240 240 240 240 240 240 240 240 240 240 240 240 240 240 245 245 245 245 245 245 245 245 245 245 245 245 245 245 245 245 245 245 245 245 245 245 245 245 245 
245 245 245 245 245 245 245 245 245 245 245 245 245 245 245 245 245 245 245 245 245 245 245 245 245 245 245 245 245 245 245 245 245 245 245 245 245 245 245 245 245 245 240 240 240 240 240 240 240 240 240 240 240 240 240 240 240 240 240 240 240 240 240 240 240 240 240 240 240 240 240 240 240 240 240 240 240 245 245 245 245 245 245 245 245 245 245 245 245 245 245 245 245 245 245 245 245 245 245 245 
245 245 245 245 245 245 245 245 245 245 245 245 245 245 245 245 245 245 245 245 245 245 245 245 245 245 245 245 245 245 245 245 245 245 245 245 245 245 245 245 240 240 240 240 240 240 240 240 240 240 240 240 240 240 240 240 240 240 240 240 240 240 240 240 240 240 240 240 240 240 240 240 240 240 240 240 240 240 245 245 245 245 245 245 245 245 245 245 245 245 245 245 245 245 245 245 245 245 245 245 
245 245 245 245 245 245 245 245 245 245 245 245 245 245 245 245 245 245 245 245 245 245 245 245 245 245 245 245 245 245 245 245 245 245 245 245 245 245 240 240 240 240 240 240 240 240 240 240 240 240 240 240 240 240 240 240 240 240 240 240 240 240 240 240 240 240 240 240 240 240 240 240 240 240 240 240 240 240 240 240 245 245 245 245 245 245 245 245 245 245 245 245 245 245 245 245 245 245 245 245 
245 245 245 245 245 245 245 245 245 245 245 245 245 245 245 245 245 245 245 245 245 245 245 245 245 245 245 245 245 245 245 245 245 245 245 245 240 240 240 240 240 240 240 240 240 240 240 240 240 240 240 240 240 240 240 240 240 240 240 240 240 240 240 240 240 240 240 240 240 240 240 240 240 240 240 240 240 240 240 240 240 245 245 245 245 245 245 245 245 245 245 245 245 245 245 245 245 245 245 245 
245 245 245 245 245 245 245 245 245 245 245 245 245 245 245 245 245 245 245 245 245 245 245 245 245 245 245 245 245 245 245 245 245 245 245 240 240 240 240 240 240 240 240 240 240 240 240 240 240 240 240 240 240 240 240 240 240 240 240 240 240 240 240 240 240 240 240 240 240 240 240 240 240 240 240 240 240 240 240 240 240 240 245 245 245 245 245 245 245 245 245 245 245 245 245 245 245 245 245 245 
245 245 245 245 245 245 245 245 245 245 245 245 245 245 245 245 245 245 245 245 245 245 245 245 245 245 245 245 245 245 245 245 245 240 240 240 240 240 240 240 240 240 240 240 240 240 240 240 240 240 240 240 240 240 240 240 240 240 240 240 240 240 240 240 240 240 240 240 240 240 240 240 240 240 240 240 240 240 240 240 240 240 240 245 245 245 245 245 245 245 245 245 245 245 245 245 245 245 245 245 
245 245 245 245 245 245 245 245 245 245 245 245 245 245 245 245 245 245 245 245 245 245 245 245 245 245 245 245 245 245 245 240 240 240 240 240 240 240 240 240 240 240 240 240 240 240 240 240 240 240 240 240 240 240 240 240 240 240 240 235 235 235 235 235 235 235 235 240 240 240 240 240 240 240 240 240 240 240 240 240 240 240 240 240 245 245 245 245 245 245 245 245 245 245 245 245 245 245 245 245 
245 245 245 245 245 245 245 245 245 245 245 245 245 245 245 245 245 245 245 245 245 245 245 245 245 245 245 245 245 245 240 240 240 240 240 240 240 240 240 240 240 240 240 240 240 240 240 240 240 240 240 240 240 240 240 240 240 235 235 235 235 235 235 235 235 235 235 235 235 235 240 240 240 240 240 240 240 240 240 240 240 240 240 240 240 245 245 245 245 245 245 245 245 245 245 245 245 245 245 245 
245 245 245 245 245 245 245 245 245 245 245 245 245 245 245 245 245 245 245 245 245 245 245 245 245 245 245 245 240 240 240 240 240 240 240 240 240 240 240 240 240 240 240 240 240 240 240 240 240 240 240 240 240 240 240 235 235 235 235 235 235 235 235 235 235 235 235 235 235 235 235 235 240 240 240 240 240 240 240 240 240 240 240 240 240 240 245 245 245 245 245 245 245 245 245 245 245 245 245 245 
245 245 245 245 245 245 245 245 245 245 245 245 245 245 245 245 245 245 245 245 245 245 245 245 245 245 245 240 240 240 240 240 240 240 240 240 240 240 240 240 240 240 240 240 240 240 240 240 240 240 240 240 240 235 235 235 235 235 235 235 235 230 230 230 230 230 235 235 235 235 235 235 235 240 240 240 240 240 240 240 240 240 240 240 240 240 245 245 245 245 245 245 245 245 245 245 245 245 245 245 
245 245 245 245 245 245 245 245 245 245 245 245 245 245 245 245 245 245 245 245 245 245 245 245 245 245 240 240 240 240 240 240 240 240 240 240 240 240 240 240 240 240 240 240 240 240 240 240 240 240 240 235 235 235 235 235 235 235 235 235 230 230 225 225 225 230 230 230 235 235 235 235 235 235 240 240 240 240 240 240 240 240 240 240 240 240 240 245 245 245 245 245 245 245 245 245 245 245 245 245 
245 245 245 245 245 245 245 245 245 245 245 245 245 245 245 245 245 245 245 245 245 245 245 245 240 240 240 240 240 240 240 240 240 240 240 240 240 240 240 240 240 240 240 240 240 240 240 240 240 235 235 235 235 235 235 235 235 235 230 230 230 220 0 80 215 220 220 225 230 230 235 235 235 235 235 240 240 240 240 240 240 240 240 240 240 240 240 240 245 245 245 245 245 245 245 245 245 245 245 245 
245 245 245 245 245 245 245 245 245 245 245 245 245 245 245 245 245 245 245 245 245 245 245 240 240 240 240 240 240 240 240 240 240 240 240 240 240 240 240 240 240 240 240 240 240 240 240 240 235 235 235 235 235 235 235 235 235 230 230 230 225 220 185 0 175 0 0 220 230 230 230 235 235 235 235 235 240 240 240 240 240 240 240 240 240 240 240 240 245 245 245 245 245 245 245 245 245 245 245 245 
245 245 245 245 245 245 245 245 245 245 245 245 245 245 245 245 245 245 245 245 245 245 240 240 240 240 240 240 240 240 240 240 240 240 240 240 240 240 240 240 240 240 240 240 240 240 235 235 235 235 235 235 235 235 235 235 230 230 230 230 225 220 195 0 0 0 180 215 225 230 230 230 235 235 235 235 235 240 240 240 240 240 240 240 240 240 240 240 240 245 245 245 245 245 245 245 245 245 245 245 
245 245 245 245 245 245 245 245 245 245 245 245 245 245 245 245 245 245 245 245 245 240 240 240 240 240 240 240 240 240 240 240 240 240 240 240 240 240 240 240 240 240 240 240 235 235 235 235 235 235 235 235 235 235 235 230 230 230 230 225 225 220 200 110 0 0 75 165 220 225 230 230 230 235 235 235 235 235 240 240 240 240 240 240 240 240 240 240 240 245 245 245 245 245 245 245 245 245 245 245 
245 245 245 245 245 245 245 245 245 245 245 245 245 245 245 245 245 245 245 245 240 240 240 240 240 240 240 240 240 240 240 240 240 240 240 240 240 240 240 240 240 240 235 235 235 235 235 235 235 235 235 235 235 235 230 230 230 230 225 225 220 215 205 185 0 0 70 0 215 220 225 230 230 230 235 235 235 235 240 240 240 240 240 240 240 240 240 240 240 240 245 245 245 245 245 245 245 245 245 245 
245 245 245 245 245 245 245 245 245 245 245 245 245 245 245 245 245 245 245 240 240 240 240 240 240 240 240 240 240 240 240 240 240 240 240 240 240 240 240 240 240 235 235 235 235 235 235 235 235 235 235 235 235 230 230 230 230 230 225 225 220 210 0 175 65 120 155 180 210 215 220 225 225 230 230 235 235 235 235 240 240 240 240 240 240 240 240 240 240 240 245 245 245 245 245 245 245 245 245 245 
245 245 245 245 245 245 245 245 245 245 245 245 245 245 245 245 245 245 240 240 240 240 240 240 240 240 240 240 240 240 240 240 240 240 240 240 240 240 240 235 235 235 235 235 235 235 235 235 235 235 235 235 230 230 230 230 230 225 225 220 210 0 60 140 10 105 0 0 70 0 210 215 200 225 230 235 235 235 235 240 240 240 240 240 240 240 240 240 240 240 240 245 245 245 245 245 245 245 245 245 
245 245 245 245 245 245 245 245 245 245 245 245 245 245 245 245 245 240 240 240 240 240 240 240 240 240 240 240 240 240 240 240 240 240 240 240 240 235 235 235 235 235 235 235 235 235 235 235 235 235 230 230 230 230 230 230 225 225 220 220 195 0 30 105 45 0 5 15 0 90 180 115 0 220 230 230 235 235 235 235 240 240 240 240 240 240 240 240 240 240 240 245 245 245 245 245 245 245 245 245 
245 245 245 245 245 245 245 245 245 245 245 245 245 245 245 245 240 240 240 240 240 240 240 240 240 240 240 240 240 240 240 240 240 240 240 240 235 235 235 235 235 235 235 235 235 235 235 235 235 230 230 230 230 230 230 225 225 225 220 215 210 195 145 0 0 0 0 0 0 0 105 0 10 220 230 230 235 235 235 235 240 240 240 240 240 240 240 240 240 240 240 245 245 245 245 245 245 245 245 245 
245 245 245 245 245 245 245 245 245 245 245 245 245 245 245 240 240 240 240 240 240 240 240 240 240 240 240 240 240 240 240 240 240 240 235 235 235 235 235 235 235 235 235 235 235 235 235 230 230 230 230 230 230 225 225 225 225 220 220 215 210 95 60 75 0 0 0 0 0 45 130 100 205 220 230 230 235 235 235 235 235 240 240 240 240 240 240 240 240 240 240 240 245 245 245 245 245 245 245 245 
245 245 245 245 245 245 245 245 245 245 245 245 245 245 245 240 240 240 240 240 240 240 240 240 240 240 240 240 240 240 240 240 240 235 235 235 235 235 235 235 235 235 235 235 235 230 230 230 230 230 230 230 225 225 225 220 220 215 215 210 205 185 145 0 0 0 0 0 0 45 185 195 215 225 230 230 235 235 235 235 235 240 240 240 240 240 240 240 240 240 240 240 245 245 245 245 245 245 245 245 
245 245 245 245 245 245 245 245 245 245 245 245 245 245 240 240 240 240 240 240 240 240 240 240 240 240 240 240 240 240 240 235 235 235 235 235 235 235 235 235 235 235 235 230 230 230 230 230 230 230 225 225 225 220 220 210 210 210 205 205 200 190 0 80 0 0 0 0 0 0 190 210 220 225 230 230 235 235 235 235 235 240 240 240 240 240 240 240 240 240 240 240 245 245 245 245 245 245 245 245 
245 245 245 245 245 245 245 245 245 245 245 245 245 240 240 240 240 240 240 240 240 240 240 240 240 240 240 240 240 240 235 235 235 235 235 235 235 235 235 235 235 230 230 230 230 230 230 230 230 225 225 225 220 210 205 150 180 185 0 0 190 185 165 100 50 0 0 0 30 95 0 210 220 225 230 230 230 235 235 235 235 240 240 240 240 240 240 240 240 240 240 240 240 245 245 245 245 245 245 245 
245 245 245 245 245 245 245 245 245 245 245 245 240 240 240 240 240 240 240 240 240 240 240 240 240 240 240 240 240 235 235 235 235 235 235 235 235 235 235 230 230 230 230 230 230 230 230 230 225 225 225 220 185 0 0 0 0 0 0 125 170 175 0 0 75 0 40 55 65 145 185 210 220 225 230 230 230 235 235 235 235 235 240 240 240 240 240 240 240 240 240 240 240 245 245 245 245 245 245 245 
245 245 245 245 245 245 245 245 245 245 245 245 240 240 240 240 240 240 240 240 240 240 240 240 240 240 240 240 235 235 235 235 235 235 235 235 235 230 230 230 230 230 230 230 230 230 225 225 225 225 220 220 210 195 80 0 0 30 0 150 165 165 135 0 110 95 0 0 110 0 65 45 20 225 230 230 230 235 235 235 235 235 240 240 240 240 240 240 240 240 240 240 240 245 245 245 245 245 245 245 
245 245 245 245 245 245 245 245 245 245 245 240 240 240 240 240 240 240 240 240 240 240 240 240 240 240 240 235 235 235 235 235 235 235 235 230 230 230 230 230 230 225 225 225 225 225 225 225 225 220 220 215 210 200 110 70 40 85 0 135 65 145 140 130 125 0 0 0 130 50 0 0 210 225 230 230 230 235 235 235 235 235 240 240 240 240 240 240 240 240 240 240 240 245 245 245 245 245 245 245 
245 245 245 245 245 245 245 245 245 245 245 240 240 240 240 240 240 240 240 240 240 240 240 240 240 235 235 235 235 235 235 235 235 235 230 230 230 230 225 225 225 225 225 225 225 225 225 220 220 220 220 215 210 205 190 170 0 110 110 0 0 0 0 120 125 140 155 160 150 100 75 0 215 225 230 230 230 235 235 235 235 235 240 240 240 240 240 240 240 240 240 240 240 240 245 245 245 245 245 245 
245 245 245 245 245 245 245 245 245 245 240 240 240 240 240 240 240 240 240 240 240 240 240 240 235 235 235 235 235 235 235 235 235 230 230 230 230 225 225 220 220 215 215 220 220 220 220 220 220 220 215 210 205 195 30 155 145 115 100 0 0 0 90 110 105 0 155 175 0 0 180 215 220 225 230 230 230 235 235 235 235 235 240 240 240 240 240 240 240 240 240 240 240 240 245 245 245 245 245 245 
245 245 245 245 245 245 245 245 245 245 240 240 240 240 240 240 240 240 240 240 240 240 240 235 235 235 235 235 235 235 235 235 230 230 230 230 225 220 200 205 210 195 0 210 215 215 215 215 215 215 210 205 185 0 0 130 0 0 75 75 45 45 0 85 40 0 170 185 195 200 210 220 220 225 230 230 230 235 235 235 235 235 240 240 240 240 240 240 240 240 240 240 240 240 245 245 245 245 245 245 
245 245 245 245 245 245 245 245 245 240 240 240 240 240 240 240 240 240 240 240 240 240 235 235 235 235 235 235 235 235 235 230 230 230 230 225 220 200 0 0 160 50 0 190 200 165 200 210 210 210 210 200 0 0 65 100 0 20 15 0 15 0 0 0 60 105 130 180 200 205 215 220 220 225 230 230 230 235 235 235 235 235 235 240 240 240 240 240 240 240 240 240 240 240 245 245 245 245 245 245 
245 245 245 245 245 245 245 245 245 240 240 240 240 240 240 240 240 240 240 240 240 240 235 235 235 235 235 235 235 230 230 230 230 230 225 225 220 215 190 35 0 0 0 65 150 0 0 200 205 205 205 200 185 160 100 80 70 0 10 0 0 0 0 0 0 0 50 40 190 205 215 220 220 225 225 230 230 230 235 235 235 235 235 240 240 240 240 240 240 240 240 240 240 240 245 245 245 245 245 245 
245 245 245 245 245 245 245 245 240 240 240 240 240 240 240 240 240 240 240 240 240 235 235 235 235 235 235 235 230 230 230 230 230 225 225 225 220 215 0 95 0 0 0 0 100 60 80 0 195 200 200 190 175 105 0 0 0 0 0 0 0 0 0 0 0 45 0 130 0 200 210 215 220 225 225 230 230 230 235 235 235 235 235 240 240 240 240 240 240 240 240 240 240 240 245 245 245 245 245 245 
245 245 245 245 245 245 245 245 240 240 240 240 240 240 240 240 240 240 240 240 235 235 235 235 235 235 230 230 230 230 230 230 225 225 225 220 215 210 200 0 0 0 0 40 0 130 130 0 190 195 190 15 0 45 80 0 10 0 0 0 0 0 0 0 0 0 50 90 0 185 105 135 220 225 225 230 230 230 235 235 235 235 235 240 240 240 240 240 240 240 240 240 240 240 245 245 245 245 245 245 
245 245 245 245 245 245 245 245 240 240 240 240 240 240 240 240 240 240 240 235 235 235 235 235 235 230 230 230 230 230 225 225 225 225 220 220 215 210 200 185 135 50 75 0 0 145 155 170 185 185 185 170 55 0 0 45 0 0 0 0 0 0 0 0 0 0 0 0 140 150 0 175 215 220 225 230 230 230 235 235 235 235 235 240 240 240 240 240 240 240 240 240 240 240 245 245 245 245 245 245 
245 245 245 245 245 245 245 240 240 240 240 240 240 240 240 240 240 240 240 235 235 235 235 235 230 230 230 225 225 225 225 220 220 220 220 210 195 190 55 170 0 0 105 0 135 150 165 170 180 180 175 160 60 110 0 10 0 0 0 0 0 0 0 0 0 0 0 60 100 85 0 175 215 220 225 225 230 230 230 235 235 235 235 240 240 240 240 240 240 240 240 240 240 240 245 245 245 245 245 245 
245 245 245 245 245 245 245 240 240 240 240 240 240 240 240 240 240 240 235 235 235 235 235 230 230 225 225 220 220 220 215 215 215 215 215 195 0 0 0 150 150 130 115 120 125 0 145 165 170 155 0 0 0 80 0 5 0 0 0 0 0 0 0 0 0 0 0 65 90 125 110 0 210 220 220 225 230 230 230 235 235 235 235 240 240 240 240 240 240 240 240 240 240 240 245 245 245 245 245 245 
245 245 245 245 245 245 245 240 240 240 240 240 240 240 240 240 240 240 235 235 235 235 230 230 225 215 0 205 215 205 30 145 210 210 205 200 155 0 100 0 0 0 105 110 0 0 5 160 160 145 0 0 45 65 50 15 0 0 0 0 0 0 0 0 0 0 0 45 0 140 155 195 205 210 220 220 225 230 230 235 235 235 235 240 240 240 240 240 240 240 240 240 240 240 245 245 245 245 245 245 
245 245 245 245 245 245 245 240 240 240 240 240 240 240 240 240 240 235 235 235 235 235 230 230 225 215 145 160 185 70 25 75 165 200 195 150 0 125 95 0 0 75 95 0 0 0 0 120 150 145 0 60 0 80 0 10 0 0 0 0 0 0 0 0 0 0 0 70 15 145 165 180 0 175 55 215 220 225 230 235 235 235 235 240 240 240 240 240 240 240 240 240 240 240 245 245 245 245 245 245 
245 245 245 245 245 245 240 240 240 240 240 240 240 240 240 240 240 235 235 235 235 230 230 225 220 205 55 0 0 0 105 145 160 190 180 20 90 0 45 45 35 0 65 65 40 0 40 0 135 135 130 120 105 95 0 0 0 0 0 0 0 0 0 0 0 0 55 0 120 110 15 70 70 105 110 180 175 220 230 230 235 235 235 240 240 240 240 240 240 240 240 240 240 240 245 245 245 245 245 245 
245 245 245 245 245 245 240 240 240 240 240 240 240 240 240 240 240 235 235 235 235 230 225 210 160 170 0 0 0 10 0 150 165 165 0 0 55 0 0 0 5 0 0 40 55 70 90 15 125 130 130 125 110 100 0 10 25 0 0 0 0 0 0 0 40 80 0 0 130 95 0 0 0 20 120 0 0 225 230 235 235 235 235 240 240 240 240 240 240 240 240 240 240 240 245 245 245 245 245 245 
245 245 245 245 245 245 240 240 240 240 240 240 240 240 240 240 240 235 235 235 235 230 225 0 0 120 20 0 0 0 95 130 0 0 80 40 0 0 0 0 0 0 0 25 10 0 100 110 125 130 130 125 15 90 70 55 40 0 0 5 0 0 0 55 0 0 165 165 150 0 10 0 0 0 170 160 210 225 230 235 235 235 235 240 240 240 240 240 240 240 240 240 240 240 245 245 245 245 245 245 
245 245 245 245 245 245 240 240 240 240 240 240 240 240 240 240 240 235 235 235 230 230 220 175 180 110 105 70 70 15 110 120 0 55 0 0 0 0 0 0 0 0 0 0 0 0 95 105 120 130 135 135 0 40 0 40 65 65 0 35 45 45 0 90 20 180 190 160 145 105 0 0 0 55 205 220 225 230 230 235 235 235 235 240 240 240 240 240 240 240 240 240 240 240 245 245 245 245 245 245 
245 245 245 245 245 245 240 240 240 240 240 240 240 240 240 240 240 235 235 235 235 230 225 220 215 55 175 0 180 165 145 15 70 0 0 0 0 0 0 0 0 0 0 0 10 0 80 0 60 0 145 150 120 0 0 0 0 95 75 0 0 95 125 0 150 195 200 165 75 25 70 185 160 145 215 225 230 230 235 235 235 235 235 240 240 240 240 240 240 240 240 240 240 245 245 245 245 245 245 245 
245 245 245 245 245 245 240 240 240 240 240 240 240 240 240 240 240 235 235 235 235 230 230 225 220 220 210 205 195 155 140 0 45 0 0 0 0 0 0 0 0 0 0 0 15 50 65 45 0 0 145 160 160 5 0 0 110 105 0 0 0 100 0 155 200 205 210 210 145 30 205 215 205 0 215 225 230 230 235 235 235 235 240 240 240 240 240 240 240 240 240 240 240 245 245 245 245 245 245 245 
245 245 245 245 245 245 240 240 240 240 240 240 240 240 240 240 240 235 235 235 235 230 230 230 225 220 220 210 0 110 125 90 65 0 0 0 0 0 0 0 0 0 0 0 5 0 80 0 0 0 155 170 165 145 0 125 120 115 130 150 150 0 0 0 195 215 215 215 215 215 220 220 220 225 225 230 230 235 235 235 235 235 240 240 240 240 240 240 240 240 240 240 240 245 245 245 245 245 245 245 
245 245 245 245 245 245 240 240 240 240 240 240 240 240 240 240 240 235 235 235 235 230 230 230 225 225 220 215 175 0 85 100 60 0 0 0 0 0 0 0 0 0 0 0 10 0 110 60 160 175 180 180 170 165 150 135 0 105 0 0 170 55 190 195 210 220 220 220 220 225 225 225 225 230 230 230 235 235 235 235 235 240 240 240 240 240 240 240 240 240 240 240 240 245 245 245 245 245 245 245 
245 245 245 245 245 245 240 240 240 240 240 240 240 240 240 240 240 235 235 235 235 235 230 230 230 225 220 215 175 0 150 140 0 0 0 0 0 0 0 0 0 0 0 0 45 0 0 55 170 185 185 185 170 155 145 0 0 75 50 135 185 200 210 215 220 220 225 225 225 225 230 230 230 230 230 235 235 235 235 235 235 240 240 240 240 240 240 240 240 240 240 240 245 245 245 245 245 245 245 245 
245 245 245 245 245 245 240 240 240 240 240 240 240 240 240 240 240 235 235 235 235 235 230 230 230 225 225 220 135 105 185 0 90 50 0 0 0 0 0 0 0 0 0 10 0 80 45 0 15 190 195 190 0 130 130 0 40 0 0 0 0 200 210 215 220 225 225 225 230 230 230 230 230 230 235 235 235 235 235 235 240 240 240 240 240 240 240 240 240 240 240 240 245 245 245 245 245 245 245 245 
245 245 245 245 245 245 240 240 240 240 240 240 240 240 240 240 240 235 235 235 235 235 230 230 230 225 225 220 215 210 200 0 130 0 45 0 0 0 0 0 0 0 0 0 0 0 105 175 190 200 200 195 0 80 60 100 0 0 0 0 95 0 215 220 225 225 225 230 230 230 230 230 235 235 235 235 235 235 235 240 240 240 240 240 240 240 240 240 240 240 240 240 245 245 245 245 245 245 245 245 
245 245 245 245 245 245 240 240 240 240 240 240 240 240 240 240 240 235 235 235 235 235 230 230 230 225 225 220 220 215 205 190 40 50 0 0 0 0 0 0 0 10 0 70 80 100 160 185 200 205 205 205 200 0 0 150 65 0 0 0 35 190 215 220 225 225 230 230 230 230 230 235 235 235 235 235 235 235 240 240 240 240 240 240 240 240 240 240 240 240 240 245 245 245 245 245 245 245 245 245 
245 245 245 245 245 245 240 240 240 240 240 240 240 240 240 240 240 235 235 235 235 235 235 230 230 230 225 220 220 215 205 200 180 130 105 60 0 0 0 15 0 15 20 0 100 65 0 0 200 210 210 210 210 200 165 200 190 0 50 160 0 0 200 220 225 230 230 230 230 235 235 235 235 235 235 235 235 235 240 240 240 240 240 240 240 240 240 240 240 240 240 245 245 245 245 245 245 245 245 245 
245 245 245 245 245 245 240 240 240 240 240 240 240 240 240 240 240 240 235 235 235 235 235 230 230 230 225 220 220 210 200 195 185 170 0 40 85 0 45 45 75 75 0 0 130 0 0 185 205 210 215 215 215 215 215 215 210 0 195 210 205 200 220 225 230 230 230 230 235 235 235 235 235 235 235 235 235 240 240 240 240 240 240 240 240 240 240 240 240 240 245 245 245 245 245 245 245 245 245 245 
245 245 245 245 245 245 240 240 240 240 240 240 240 240 240 240 240 240 235 235 235 235 235 230 230 230 225 220 215 180 0 0 175 155 0 105 110 90 0 0 0 100 115 145 155 30 195 205 210 215 220 220 220 220 220 220 220 215 215 220 220 225 225 230 230 230 230 235 235 235 235 235 235 235 235 235 240 240 240 240 240 240 240 240 240 240 240 240 240 240 245 245 245 245 245 245 245 245 245 245 
245 245 245 245 245 245 240 240 240 240 240 240 240 240 240 240 240 240 235 235 235 235 235 230 230 230 225 215 0 75 100 150 160 155 140 125 120 0 0 0 0 110 110 0 170 190 205 210 215 220 220 220 220 225 225 225 225 225 225 225 225 225 230 230 230 230 235 235 235 235 235 235 235 235 235 240 240 240 240 240 240 240 240 240 240 240 240 240 240 245 245 245 245 245 245 245 245 245 245 245 
245 245 245 245 245 245 245 240 240 240 240 240 240 240 240 240 240 240 235 235 235 235 235 230 230 230 225 210 0 0 50 130 0 0 0 125 130 140 145 65 135 0 85 40 70 110 200 210 215 220 220 225 225 225 225 225 225 225 225 230 230 230 230 230 230 235 235 235 235 235 235 235 235 240 240 240 240 240 240 240 240 240 240 240 240 240 240 240 240 245 245 245 245 245 245 245 245 245 245 245 
245 245 245 245 245 245 245 240 240 240 240 240 240 240 240 240 240 240 235 235 235 235 235 230 230 230 225 20 45 65 0 110 0 0 95 110 0 135 165 165 150 0 30 0 0 80 195 210 220 220 225 225 225 225 230 230 230 230 230 230 230 230 230 235 235 235 235 235 235 235 235 235 240 240 240 240 240 240 240 240 240 240 240 240 240 240 240 240 245 245 245 245 245 245 245 245 245 245 245 245 
245 245 245 245 245 245 245 240 240 240 240 240 240 240 240 240 240 240 235 235 235 235 235 230 230 230 225 220 210 185 145 65 55 40 0 75 0 0 175 170 125 0 0 0 0 0 0 185 220 225 225 225 230 230 230 230 230 230 230 230 230 235 235 235 235 235 235 235 235 235 235 240 240 240 240 240 240 240 240 240 240 240 240 240 240 240 240 240 245 245 245 245 245 245 245 245 245 245 245 245 
245 245 245 245 245 245 245 240 240 240 240 240 240 240 240 240 240 240 240 235 235 235 235 230 230 230 225 220 210 0 95 30 0 0 0 50 100 165 185 190 0 0 185 180 150 205 210 220 225 225 225 230 230 230 230 230 230 230 230 235 235 235 235 235 235 235 235 235 235 235 240 240 240 240 240 240 240 240 240 240 240 240 240 240 240 240 240 245 245 245 245 245 245 245 245 245 245 245 245 245 
245 245 245 245 245 245 245 245 240 240 240 240 240 240 240 240 240 240 240 235 235 235 235 235 230 230 225 220 210 190 0 0 0 0 0 0 80 0 190 200 205 205 210 210 210 220 220 225 225 225 230 230 230 230 230 230 230 235 235 235 235 235 235 235 235 235 235 235 235 240 240 240 240 240 240 240 240 240 240 240 240 240 240 240 240 240 245 245 245 245 245 245 245 245 245 245 245 245 245 245 
245 245 245 245 245 245 245 245 240 240 240 240 240 240 240 240 240 240 240 235 235 235 235 235 230 230 225 215 195 185 45 0 0 0 0 0 0 145 185 205 210 215 215 220 220 225 225 225 230 230 230 230 230 230 230 235 235 235 235 235 235 235 235 235 235 235 235 240 240 240 240 240 240 240 240 240 240 240 240 240 240 240 240 240 240 245 245 245 245 245 245 245 245 245 245 245 245 245 245 245 
245 245 245 245 245 245 245 245 240 240 240 240 240 240 240 240 240 240 240 235 235 235 235 235 230 230 220 205 100 130 45 0 0 0 0 0 75 60 95 210 215 220 220 225 225 225 225 230 230 230 230 230 230 235 235 235 235 235 235 235 235 235 235 235 235 235 240 240 240 240 240 240 240 240 240 240 240 240 240 240 240 240 240 240 240 245 245 245 245 245 245 245 245 245 245 245 245 245 245 245 
245 245 245 245 245 245 245 245 245 240 240 240 240 240 240 240 240 240 240 240 235 235 235 235 230 230 220 10 0 105 0 0 0 0 0 0 0 145 195 210 215 220 225 225 225 230 230 230 230 230 230 235 235 235 235 235 235 235 235 235 235 235 235 235 240 240 240 240 240 240 240 240 240 240 240 240 240 240 240 240 240 240 240 240 245 245 245 245 245 245 245 245 245 245 245 245 245 245 245 245 
245 245 245 245 245 245 245 245 245 240 240 240 240 240 240 240 240 240 240 240 235 235 235 235 230 230 220 0 115 180 90 0 15 5 0 45 105 30 0 195 220 220 225 225 230 230 230 230 230 230 235 235 235 235 235 235 235 235 235 235 235 235 235 240 240 240 240 240 240 240 240 240 240 240 240 240 240 240 240 240 240 240 240 245 245 245 245 245 245 245 245 245 245 245 245 245 245 245 245 245 
245 245 245 245 245 245 245 245 245 240 240 240 240 240 240 240 240 240 240 240 240 235 235 235 235 230 225 200 215 210 0 70 0 0 105 10 140 60 0 210 220 225 225 230 230 230 230 230 235 235 235 235 235 235 235 235 235 235 235 235 235 240 240 240 240 240 240 240 240 240 240 240 240 240 240 240 240 240 240 240 240 240 245 245 245 245 245 245 245 245 245 245 245 245 245 245 245 245 245 245 
245 245 245 245 245 245 245 245 245 245 240 240 240 240 240 240 240 240 240 240 240 235 235 235 235 230 230 225 225 220 215 210 180 155 120 65 175 0 210 220 225 225 230 230 230 230 230 235 235 235 235 235 235 235 235 235 235 235 235 240 240 240 240 240 240 240 240 240 240 240 240 240 240 240 240 240 240 240 240 240 240 245 245 245 245 245 245 245 245 245 245 245 245 245 245 245 245 245 245 245 
245 245 245 245 245 245 245 245 245 245 240 240 240 240 240 240 240 240 240 240 240 240 235 235 235 235 230 230 230 225 220 215 0 70 0 0 185 205 215 220 225 225 230 230 230 230 235 235 235 235 235 235 235 235 235 235 235 235 240 240 240 240 240 240 240 240 240 240 240 240 240 240 240 240 240 240 240 240 240 240 245 245 245 245 245 245 245 245 245 245 245 245 245 245 245 245 245 245 245 245 
245 245 245 245 245 245 245 245 245 245 245 240 240 240 240 240 240 240 240 240 240 240 235 235 235 235 235 230 230 230 225 220 165 75 0 0 110 200 220 225 225 230 230 230 230 235 235 235 235 235 235 235 235 235 235 235 240 240 240 240 240 240 240 240 240 240 240 240 240 240 240 240 240 240 240 240 240 240 240 245 245 245 245 245 245 245 245 245 245 245 245 245 245 245 245 245 245 245 245 245 
245 245 245 245 245 245 245 245 245 245 245 240 240 240 240 240 240 240 240 240 240 240 240 235 235 235 235 235 230 230 230 225 215 180 0 0 0 195 220 225 230 230 230 230 235 235 235 235 235 235 235 235 235 235 240 240 240 240 240 240 240 240 240 240 240 240 240 240 240 240 240 240 240 240 240 240 240 240 245 245 245 245 245 245 245 245 245 245 245 245 245 245 245 245 245 245 245 245 245 245 
245 245 245 245 245 245 245 245 245 245 245 245 240 240 240 240 240 240 240 240 240 240 240 240 235 235 235 235 235 230 230 230 220 0 0 175 0 185 220 225 230 230 230 235 235 235 235 235 235 235 235 235 240 240 240 240 240 240 240 240 240 240 240 240 240 240 240 240 240 240 240 240 240 240 240 240 240 245 245 245 245 245 245 245 245 245 245 245 245 245 245 245 245 245 245 245 245 245 245 245 
245 245 245 245 245 245 245 245 245 245 245 245 240 240 240 240 240 240 240 240 240 240 240 240 240 235 235 235 235 235 230 230 225 220 220 215 80 0 220 230 230 230 235 235 235 235 235 235 235 235 235 240 240 240 240 240 240 240 240 240 240 240 240 240 240 240 240 240 240 240 240 240 240 240 240 240 245 245 245 245 245 245 245 245 245 245 245 245 245 245 245 245 245 245 245 245 245 245 245 245 
245 245 245 245 245 245 245 245 245 245 245 245 245 240 240 240 240 240 240 240 240 240 240 240 240 240 235 235 235 235 235 235 230 230 230 225 225 225 230 230 235 235 235 235 235 235 235 235 235 240 240 240 240 240 240 240 240 240 240 240 240 240 240 240 240 240 240 240 240 240 240 240 240 240 245 245 245 245 245 245 245 245 245 245 245 245 245 245 245 245 245 245 245 245 245 245 245 245 245 245 
245 245 245 245 245 245 245 245 245 245 245 245 245 245 240 240 240 240 240 240 240 240 240 240 240 240 240 235 235 235 235 235 235 235 230 230 230 230 230 235 235 235 235 235 235 235 235 240 240 240 240 240 240 240 240 240 240 240 240 240 240 240 240 240 240 240 240 240 240 240 240 240 240 245 245 245 245 245 245 245 245 245 245 245 245 245 245 245 245 245 245 245 245 245 245 245 245 245 245 245 
245 245 245 245 245 245 245 245 245 245 245 245 245 245 240 240 240 240 240 240 240 240 240 240 240 240 240 240 235 235 235 235 235 235 235 235 235 235 235 235 235 235 235 235 235 240 240 240 240 240 240 240 240 240 240 240 240 240 240 240 240 240 240 240 240 240 240 240 240 240 240 240 245 245 245 245 245 245 245 245 245 245 245 245 245 245 245 245 245 245 245 245 245 245 245 245 245 245 245 245 
245 245 245 245 245 245 245 245 245 245 245 245 245 245 245 240 240 240 240 240 240 240 240 240 240 240 240 240 240 240 235 235 235 235 235 235 235 235 235 235 235 235 235 240 240 240 240 240 240 240 240 240 240 240 240 240 240 240 240 240 240 240 240 240 240 240 240 240 240 240 245 245 245 245 245 245 245 245 245 245 245 245 245 245 245 245 245 245 245 245 245 245 245 245 245 245 245 245 245 245 
245 245 245 245 245 245 245 245 245 245 245 245 245 245 245 245 240 240 240 240 240 240 240 240 240 240 240 240 240 240 240 240 240 235 235 235 235 235 235 235 235 240 240 240 240 240 240 240 240 240 240 240 240 240 240 240 240 240 240 240 240 240 240 240 240 240 240 240 240 245 245 245 245 245 245 245 245 245 245 245 245 245 245 245 245 245 245 245 245 245 245 245 245 245 245 245 245 245 245 245 
245 245 245 245 245 245 245 245 245 245 245 245 245 245 245 245 245 240 240 240 240 240 240 240 240 240 240 240 240 240 240 240 240 240 240 240 240 240 240 240 240 240 240 240 240 240 240 240 240 240 240 240 240 240 240 240 240 240 240 240 240 240 240 240 240 240 240 245 245 245 245 245 245 245 245 245 245 245 245 245 245 245 245 245 245 245 245 245 245 245 245 245 245 245 245 245 245 245 245 245 
245 245 245 245 245 245 245 245 245 245 245 245 245 245 245 245 245 245 240 240 240 240 240 240 240 240 240 240 240 240 240 240 240 240 240 240 240 240 240 240 240 240 240 240 240 240 240 240 240 240 240 240 240 240 240 240 240 240 240 240 240 240 240 240 240 245 245 245 245 245 245 245 245 245 245 245 245 245 245 245 245 245 245 245 245 245 245 245 245 245 245 245 245 245 245 245 245 245 245 245 
245 245 245 245 245 245 245 245 245 245 245 245 245 245 245 245 245 245 245 240 240 240 240 240 240 240 240 240 240 240 240 240 240 240 240 240 240 240 240 240 240 240 240 240 240 240 240 240 240 240 240 240 240 240 240 240 240 240 240 240 240 240 240 240 245 245 245 245 245 245 245 245 245 245 245 245 245 245 245 245 245 245 245 245 245 245 245 245 245 245 245 245 245 245 245 245 245 245 245 245 
245 245 245 245 245 245 245 245 245 245 245 245 245 245 245 245 245 245 245 245 240 240 240 240 240 240 240 240 240 240 240 240 240 240 240 240 240 240 240 240 240 240 240 240 240 240 240 240 240 240 240 240 240 240 240 240 240 240 240 240 240 240 245 245 245 245 245 245 245 245 245 245 245 245 245 245 245 245 245 245 245 245 245 245 245 245 245 245 245 245 245 245 245 245 245 245 245 245 245 245 
245 245 245 245 245 245 245 245 245 245 245 245 245 245 245 245 245 245 245 245 245 245 240 240 240 240 240 240 240 240 240 240 240 240 240 240 240 240 240 240 240 240 240 240 240 240 240 240 240 240 240 240 240 240 240 240 240 240 240 240 245 245 245 245 245 245 245 245 245 245 245 245 245 245 245 245 245 245 245 245 245 245 245 245 245 245 245 245 245 245 245 245 245 245 245 245 245 245 245 245 
245 245 245 245 245 245 245 245 245 245 245 245 245 245 245 245 245 245 245 245 245 245 245 240 240 240 240 240 240 240 240 240 240 240 240 240 240 240 240 240 240 240 240 240 240 240 240 240 240 240 240 240 240 240 240 240 240 240 245 245 245 245 245 245 245 245 245 245 245 245 245 245 245 245 245 245 245 245 245 245 245 245 245 245 245 245 245 245 245 245 245 245 245 245 245 245 245 245 245 245 
245 245 245 245 245 245 245 245 245 245 245 245 245 245 245 245 245 245 245 245 245 245 245 245 245 240 240 240 240 240 240 240 240 240 240 240 240 240 240 240 240 240 240 240 240 240 240 240 240 240 240 240 240 240 240 245 245 245 245 245 245 245 245 245 245 245 245 245 245 245 245 245 245 245 245 245 245 245 245 245 245 245 245 245 245 245 245 245 245 245 245 245 245 245 245 245 245 245 245 245 
245 245 245 245 245 245 245 245 245 245 245 245 245 245 245 245 245 245 245 245 245 245 245 245 245 245 245 240 240 240 240 240 240 240 240 240 240 240 240 240 240 240 240 240 240 240 240 240 240 240 240 240 245 245 245 245 245 245 245 245 245 245 245 245 245 245 245 245 245 245 245 245 245 245 245 245 245 245 245 245 245 245 245 245 245 245 245 245 245 245 245 245 245 245 245 245 245 245 245 245 
245 245 245 245 245 245 245 245 245 245 245 245 245 245 245 245 245 245 245 245 245 245 245 245 245 245 245 245 245 245 240 240 240 240 240 240 240 240 240 240 240 240 240 240 240 240 240 240 240 245 245 245 245 245 245 245 245 245 245 245 245 245 245 245 245 245 245 245 245 245 245 245 245 245 245 245 245 245 245 245 245 245 245 245 245 245 245 245 245 245 245 245 245 245 245 245 245 245 245 245 
245 245 245 245 245 245 245 245 245 245 245 245 245 245 245 245 245 245 245 245 245 245 245 245 245 245 245 245 245 245 245 245 245 245 245 240 240 240 240 240 240 240 240 240 245 245 245 245 245 245 245 245 245 245 245 245 245 245 245 245 245 245 245 245 245 245 245 245 245 245 245 245 245 245 245 245 245 245 245 245 245 245 245 245 245 245 245 245 245 245 245 245 245 245 245 245 245 245 245 245 
245 245 245 245 245 245 245 245 245 245 245 245 245 245 245 245 245 245 245 245 245 245 245 245 245 245 245 245 245 245 245 245 245 245 245 245 245 245 245 245 245 245 245 245 245 245 245 245 245 245 245 245 245 245 245 245 245 245 245 245 245 245 245 245 245 245 245 245 245 245 245 245 245 245 245 245 245 245 245 245 245 245 245 245 245 245 245 245 245 245 245 245 245 245 245 245 245 245 245 245 
245 245 245 245 245 245 245 245 245 245 245 245 245 245 245 245 245 245 245 245 245 245 245 245 245 245 245 245 245 245 245 245 245 245 245 245 245 245 245 245 245 245 245 245 245 245 245 245 245 245 245 245 245 245 245 245 245 245 245 245 245 245 245 245 245 245 245 245 245 245 245 245 245 245 245 245 245 245 245 245 245 245 245 245 245 245 245 245 245 245 245 245 245 245 245 245 245 245 245 245 
245 245 245 245 245 245 245 245 245 245 245 245 245 245 245 245 245 245 245 245 245 245 245 245 245 245 245 245 245 245 245 245 245 245 245 245 245 245 245 245 245 245 245 245 245 245 245 245 245 245 245 245 245 245 245 245 245 245 245 245 245 245 245 245 245 245 245 245 245 245 245 245 245 245 245 245 245 245 245 245 245 245 245 245 245 245 245 245 245 245 245 245 245 245 245 245 245 245 245 245 
245 245 245 245 245 245 245 245 245 245 245 245 245 245 245 245 245 245 245 245 245 245 245 245 245 245 245 245 245 245 245 245 245 245 245 245 245 245 245 245 245 245 245 245 245 245 245 245 245 245 245 245 245 245 245 245 245 245 245 245 245 245 245 245 245 245 245 245 245 245 245 245 245 245 245 245 245 245 245 245 245 245 245 245 245 245 245 245 245 245 245 245 245 245 245 245 245 245 245 245 
245 245 245 245 245 245 245 245 245 245 245 245 245 245 245 245 245 245 245 245 245 245 245 245 245 245 245 245 245 245 245 245 245 245 245 245 245 245 245 245 245 245 245 245 245 245 245 245 245 245 245 245 245 245 245 245 245 245 245 245 245 245 245 245 245 245 245 245 245 245 245 245 245 245 245 245 245 245 245 245 245 245 245 245 245 245 245 245 245 245 245 245 245 245 245 245 245 245 245 245 
